<svg width="24" height="22" viewBox="0 0 24 22" fill="none" xmlns="http://www.w3.org/2000/svg">
<path d="M23.9577 1.4915L20.2019 20.4271C20.2019 20.4271 19.6767 21.7403 18.2323 21.11L9.56554 14.4655L6.41413 12.9423L1.1091 11.1563C1.1091 11.1563 0.294958 10.8675 0.216107 10.2372C0.137256 9.60691 1.13538 9.26555 1.13538 9.26555L22.2241 0.992764C22.2241 0.992764 23.9575 0.231194 23.9575 1.49183" fill="white"/>
<path d="M8.89951 20.2144C8.89951 20.2144 8.64653 20.1907 8.33113 19.1926C8.01622 18.1946 6.41406 12.9422 6.41406 12.9422L19.1515 4.85335C19.1515 4.85335 19.8869 4.40685 19.8606 4.85335C19.8606 4.85335 19.9919 4.9322 19.5978 5.29984C19.204 5.66765 9.59192 14.3079 9.59192 14.3079" fill="#D2E5F1"/>
<path d="M12.8889 17.0129L9.46106 20.1383C9.46106 20.1383 9.19297 20.3417 8.8999 20.2142L9.55634 14.4088" fill="#B5CFE4"/>
</svg>
