<svg width="145" height="17" viewBox="0 0 145 17" fill="none" xmlns="http://www.w3.org/2000/svg">
<path d="M6.16 7.08C6.85333 7.34667 7.38667 7.78667 7.76 8.4C8.14667 9.01333 8.34 9.7 8.34 10.46C8.34 11.5933 7.96667 12.5067 7.22 13.2C6.47333 13.88 5.56 14.22 4.48 14.22C3.4 14.22 2.48667 13.88 1.74 13.2C0.993333 12.5067 0.62 11.5933 0.62 10.46C0.62 9.7 0.806667 9.01333 1.18 8.4C1.56667 7.78667 2.10667 7.34667 2.8 7.08C1.56 6.42667 0.94 5.4 0.94 4C0.94 3 1.28 2.16667 1.96 1.5C2.64 0.819999 3.48 0.479999 4.48 0.479999C5.48 0.479999 6.32 0.819999 7 1.5C7.68 2.16667 8.02 3 8.02 4C8.02 5.4 7.4 6.42667 6.16 7.08ZM2.62 5.94C3.14 6.44667 3.76 6.7 4.48 6.7C5.2 6.7 5.81333 6.44667 6.32 5.94C6.84 5.42 7.1 4.77333 7.1 4C7.1 3.21333 6.84667 2.56667 6.34 2.06C5.83333 1.54 5.21333 1.28 4.48 1.28C3.74667 1.28 3.12667 1.54 2.62 2.06C2.11333 2.56667 1.86 3.21333 1.86 4C1.86 4.77333 2.11333 5.42 2.62 5.94ZM2.34 12.58C2.88667 13.14 3.6 13.42 4.48 13.42C5.36 13.42 6.06667 13.14 6.6 12.58C7.14667 12.0067 7.42 11.3 7.42 10.46C7.42 9.58 7.14667 8.86 6.6 8.3C6.05333 7.74 5.34667 7.46 4.48 7.46C3.61333 7.46 2.90667 7.74 2.36 8.3C1.81333 8.86 1.54 9.58 1.54 10.46C1.54 11.3 1.80667 12.0067 2.34 12.58ZM14.625 16.32V15.56H24.625V16.32H14.625ZM24.625 16.32V15.56H34.625V16.32H24.625ZM34.625 16.32V15.56H44.625V16.32H34.625ZM44.625 16.32V15.56H54.625V16.32H44.625ZM54.625 16.32V15.56H64.625V16.32H54.625ZM64.625 16.32V15.56H74.625V16.32H64.625ZM74.625 16.32V15.56H84.625V16.32H74.625ZM84.625 16.32V15.56H94.625V16.32H84.625ZM94.625 16.32V15.56H104.625V16.32H94.625ZM104.625 16.32V15.56H114.625V16.32H104.625ZM114.625 16.32V15.56H124.625V16.32H114.625ZM124.625 16.32V15.56H134.625V16.32H124.625ZM134.625 16.32V15.56H144.625V16.32H134.625Z" fill="#778F9D"/>
</svg>
